<svg width="32" height="32" viewBox="0 0 32 32" fill="none" xmlns="http://www.w3.org/2000/svg">
<path d="M23.8167 15.5433C23.8165 15.5431 23.8163 15.5429 23.8161 15.5427L20.5504 12.1879C20.3057 11.9365 19.91 11.9375 19.6665 12.1901C19.423 12.4426 19.4239 12.8511 19.6686 13.1024L21.8612 15.3548H8.625C8.27981 15.3548 8 15.6437 8 16C8 16.3563 8.27981 16.6452 8.625 16.6452H21.8611L19.6686 18.8975C19.4239 19.1489 19.423 19.5574 19.6665 19.8099C19.91 20.0626 20.3058 20.0634 20.5504 19.8121L23.8161 16.4573C23.8163 16.4571 23.8165 16.4569 23.8167 16.4567C24.0615 16.2045 24.0607 15.7947 23.8167 15.5433Z" fill="black"/>
</svg>
