<svg fill="none" height="40" viewBox="0 0 40 40" width="40" xmlns="http://www.w3.org/2000/svg" xmlns:xlink="http://www.w3.org/1999/xlink"><filter id="a" color-interpolation-filters="sRGB" filterUnits="userSpaceOnUse" height="2940" width="1288" x="-168" y="-2224"><feFlood flood-opacity="0" result="BackgroundImageFix"/><feColorMatrix in="SourceAlpha" type="matrix" values="0 0 0 0 0 0 0 0 0 0 0 0 0 0 0 0 0 0 127 0"/><feOffset dy="12"/><feGaussianBlur stdDeviation="12"/><feColorMatrix type="matrix" values="0 0 0 0 0.172549 0 0 0 0 0.243137 0 0 0 0 0.313726 0 0 0 0.06 0"/><feBlend in2="BackgroundImageFix" mode="normal" result="effect1_dropShadow"/><feBlend in="SourceGraphic" in2="effect1_dropShadow" mode="normal" result="shape"/></filter><clipPath id="b"><path d="m-344-2284h1440v2964h-1440z"/></clipPath><path d="m0 0h40v40h-40z" fill="#f2f2f2"/><g clip-path="url(#b)"><path d="m0 0h1440v2964h-1440z" fill="#fcfcfc" transform="translate(-344 -2284)"/><g filter="url(#a)"><path d="m-144-2200c0-6.63 5.373-12 12-12h1216c6.63 0 12 5.37 12 12v2880h-1240z" fill="#fff"/></g><path clip-rule="evenodd" d="m19.9996 29.9995c5.5228 0 9.9999-4.4764 9.9999-9.9997 0-5.5234-4.4771-9.9998-9.9999-9.9998s-9.9996 4.4764-9.9996 9.9998c0 5.5233 4.4768 9.9997 9.9996 9.9997zm5.0024-12.5295-6.5336 6.5349-3.4704-3.4705 1.398-1.3971 2.0724 2.0621 5.1358-5.1265z" fill="#4ECDC4" fill-rule="evenodd"/></g></svg>