<svg fill="none" height="40" viewBox="0 0 40 40" width="40" xmlns="http://www.w3.org/2000/svg"><path d="m21.0005 21.0004h-1.9999v-5.9998h1.9999zm0 3.9998h-1.9999v-1.9999h1.9999zm-.9999-14.9994c-1.3132 0-2.6135.2586-3.8267.7612-1.2132.5025-2.3156 1.2391-3.2441 2.1676-1.8753 1.8753-2.9288 4.4187-2.9288 7.0708s1.0535 5.1955 2.9288 7.0708c.9285.9285 2.0309 1.6651 3.2441 2.1676 1.2132.5026 2.5135.7612 3.8267.7612 2.652 0 5.1955-1.0535 7.0708-2.9288s2.9288-4.4187 2.9288-7.0708c0-1.3132-.2587-2.6135-.7612-3.8267s-1.2391-2.3155-2.1676-3.2441c-.9286-.9285-2.0309-1.6651-3.2441-2.1676-1.2132-.5026-2.5136-.7612-3.8267-.7612z" fill="#ff6b6b"/></svg>