<svg fill="none" height="40" viewBox="0 0 40 40" width="40" xmlns="http://www.w3.org/2000/svg" xmlns:xlink="http://www.w3.org/1999/xlink"><clipPath id="a"><path d="m0 0h40v40h-40z"/></clipPath><g clip-path="url(#a)"><path d="m0 20c0 3.9556 1.17298 7.8224 3.37061 11.1114s5.3212 5.8524 8.97569 7.3662c3.6546 1.5137 7.6759 1.9098 11.5555 1.1381s7.4433-2.6765 10.2403-5.4736c2.7971-2.797 4.7019-6.3607 5.4736-10.2403s.3756-7.9009-1.1381-11.5555c-1.5138-3.65449-4.0772-6.77806-7.3662-8.97569s-7.1558-3.37061-11.1114-3.37061c-5.3043 0-10.39141 2.10714-14.14214 5.85786-3.75072 3.75073-5.85786 8.83784-5.85786 14.14214z" fill="#2e4053"/><g stroke="#fff" stroke-linecap="round" stroke-miterlimit="10" stroke-width="2"><path d="m28.75 26.3625v3.6937c0 .1498-.0591.2935-.1644.4s-.2483.1672-.3981.1688h-16.9375c-.1498-.0016-.2928-.0623-.3981-.1688s-.1644-.2502-.1644-.4v-3.6937c0-2.9813 4.0437-5.4 9.0312-5.4s9.0313 2.4187 9.0313 5.4z"/><path d="m19.7188 17.1c2.216 0 4.0125-1.7293 4.0125-3.8625s-1.7965-3.8625-4.0125-3.8625-4.0125 1.7293-4.0125 3.8625 1.7965 3.8625 4.0125 3.8625z"/></g></g></svg>